<svg width="91" height="28" viewBox="0 0 91 28" fill="none" xmlns="http://www.w3.org/2000/svg">
<g clip-path="url(#clip0_56_605)">
<path d="M47.644 7.03518C47.644 8.04428 46.8309 8.85682 45.8218 8.85682C44.8127 8.85682 44.0001 8.04428 44.0001 7.03518C44.0001 6.02608 44.7849 5.21353 45.8218 5.21353C46.8594 5.24153 47.644 6.05436 47.644 7.03518ZM40.1323 10.707V11.1556C40.1323 11.1556 39.2637 10.0339 37.4138 10.0339C34.3591 10.0339 31.9763 12.3604 31.9763 15.5834C31.9763 18.7787 34.3311 21.1329 37.4138 21.1329C39.2917 21.1329 40.1323 19.9838 40.1323 19.9838V20.4601C40.1323 20.6843 40.3008 20.8521 40.5248 20.8521H42.7947V10.3134H40.5248C40.3008 10.3142 40.1323 10.5108 40.1323 10.707ZM40.1323 17.4613C39.7123 18.0782 38.8712 18.6107 37.8624 18.6107C36.0687 18.6107 34.6951 17.4896 34.6951 15.5834C34.6951 13.6775 36.0687 12.5564 37.8624 12.5564C38.8435 12.5564 39.7403 13.1169 40.1323 13.7055V17.4613ZM44.4767 10.3142H47.1671V20.8529H44.4767V10.3142ZM84.6685 10.0336C82.8185 10.0336 81.9494 11.1553 81.9494 11.1553V5.24153H79.259V20.8529H81.5294C81.7537 20.8529 81.9214 20.6566 81.9214 20.4603V19.9841C81.9214 19.9841 82.7906 21.1332 84.6399 21.1332C87.6952 21.1332 90.0774 18.7795 90.0774 15.5842C90.0774 12.3889 87.6952 10.0336 84.6685 10.0336ZM84.2199 18.5824C83.1825 18.5824 82.37 18.0504 81.9494 17.4333V13.6775C82.37 13.1169 83.2668 12.5284 84.2199 12.5284C86.0136 12.5284 87.3869 13.6495 87.3869 15.5554C87.3869 17.4613 86.0138 18.5824 84.2199 18.5824ZM77.8579 14.6029V20.8809H75.1669V14.9109C75.1669 13.1735 74.6063 12.4724 73.0938 12.4724C72.2812 12.4724 71.4401 12.8929 70.9067 13.5098V20.8532H68.2168V10.3145H70.3462C70.5705 10.3145 70.7387 10.5108 70.7387 10.707V11.1556C71.5236 10.3425 72.5604 10.0339 73.5972 10.0339C74.7746 10.0339 75.7557 10.3708 76.5405 11.0433C77.493 11.8281 77.8579 12.8369 77.8579 14.6029ZM61.6854 10.0336C59.836 10.0336 58.9669 11.1553 58.9669 11.1553V5.24153H56.2765V20.8529H58.5464C58.7707 20.8529 58.9389 20.6566 58.9389 20.4603V19.9841C58.9389 19.9841 59.808 21.1332 61.6574 21.1332C64.7127 21.1332 67.0949 18.7795 67.0949 15.5842C67.1229 12.3887 64.7407 10.0336 61.6854 10.0336ZM61.2369 18.5824C60.2 18.5824 59.3875 18.0504 58.9669 17.4333V13.6775C59.3875 13.1169 60.2843 12.5284 61.2369 12.5284C63.0311 12.5284 64.4041 13.6495 64.4041 15.5554C64.4041 17.4613 63.0311 18.5824 61.2369 18.5824ZM53.95 10.0336C54.7625 10.0336 55.1831 10.1742 55.1831 10.1742V12.6684C55.1831 12.6684 52.9409 11.9116 51.5398 13.5095V20.8806H48.8488V10.3142H51.1193C51.3435 10.3142 51.5112 10.5105 51.5112 10.7067V11.1553C52.0164 10.5665 53.1095 10.0336 53.95 10.0336ZM26.0068 19.8998C25.8668 19.5635 25.7266 19.1993 25.5866 18.8907C25.362 18.3864 25.1377 17.9096 24.942 17.4613L24.914 17.4333C22.9798 13.2289 20.9062 8.9691 18.7197 4.76527L18.6357 4.5967C18.4057 4.1606 18.1816 3.72144 17.9634 3.27933C17.6829 2.7745 17.4029 2.24251 16.9543 1.73768C16.0575 0.616584 14.7681 -0.000244141 13.395 -0.000244141C11.9934 -0.000244141 10.7323 0.616587 9.80777 1.68141C9.38721 2.18568 9.07866 2.71823 8.79866 3.22306C8.57992 3.66489 8.35582 4.10404 8.1264 4.54043L8.04212 4.70898C5.88392 8.91282 3.782 13.1729 1.84808 17.3771L1.81981 17.4328C1.62381 17.8819 1.39925 18.3581 1.17498 18.8621C1.03498 19.1707 0.894983 19.507 0.754986 19.8712C0.390434 20.9081 0.27815 21.8892 0.418708 22.8985C0.726981 25.0007 2.12807 26.7658 4.06227 27.5512C4.7911 27.8598 5.54793 27.9998 6.33247 27.9998C6.55675 27.9998 6.83675 27.9718 7.0613 27.9435C7.9864 27.8315 8.93922 27.5235 9.86432 26.9909C11.0134 26.3461 12.1065 25.4216 13.3396 24.0762C14.5727 25.4216 15.6938 26.3461 16.8149 26.9909C17.7403 27.5235 18.6928 27.8315 19.6176 27.9435C19.8419 27.972 20.1225 27.9998 20.3468 27.9998C21.1316 27.9998 21.9161 27.8598 22.6167 27.5512C24.5789 26.7658 25.952 24.9727 26.2605 22.8985C26.4831 21.9177 26.3711 20.9372 26.0068 19.8998ZM13.3668 21.3572C11.8531 19.4512 10.872 17.6576 10.536 16.1445C10.396 15.4997 10.3678 14.9391 10.452 14.4346C10.5078 13.986 10.6763 13.5935 10.9006 13.2572C11.4331 12.5009 12.33 12.0241 13.3671 12.0241C14.4044 12.0241 15.3293 12.4727 15.8338 13.2572C16.0581 13.5935 16.2261 13.9863 16.2826 14.4346C16.3664 14.9394 16.3384 15.5277 16.1984 16.1445C15.861 17.6296 14.8799 19.4235 13.3668 21.3572ZM24.5492 22.6745C24.3532 24.1319 23.3721 25.3936 21.999 25.9541C21.3265 26.2341 20.5973 26.3184 19.8691 26.2341C19.1685 26.1498 18.4674 25.9256 17.7392 25.5056C16.7301 24.9445 15.7212 24.0762 14.5439 22.7865C16.3935 20.5166 17.5146 18.4422 17.9352 16.5928C18.1314 15.7237 18.1597 14.9391 18.0752 14.21C17.9634 13.5095 17.7109 12.8647 17.3186 12.3041C16.4492 11.0425 14.9916 10.3142 13.3665 10.3142C11.7414 10.3142 10.2838 11.071 9.41493 12.3041C9.02266 12.8647 8.7701 13.5095 8.6581 14.21C8.54611 14.9391 8.57382 15.7517 8.7981 16.5928C9.21837 18.4422 10.3675 20.5444 12.1891 22.8145C11.04 24.1039 10.0029 24.973 8.99382 25.5336C8.26499 25.9541 7.56473 26.1784 6.86418 26.2621C6.10764 26.3464 5.37853 26.2341 4.73399 25.9821C3.36089 25.4216 2.37979 24.1599 2.1838 22.7025C2.0998 22.002 2.15552 21.3014 2.43607 20.5166C2.51979 20.2361 2.66035 19.9561 2.80034 19.6198C2.99662 19.1713 3.22034 18.6944 3.44489 18.2182L3.47317 18.1624C5.40682 13.986 7.48073 9.72592 9.63893 5.57808L9.72293 5.40953C9.94748 4.98954 10.1718 4.54099 10.3958 4.12044C10.62 3.67189 10.872 3.25133 11.1806 2.88678C11.7691 2.21479 12.5537 1.84996 13.4228 1.84996C14.2919 1.84996 15.0764 2.21479 15.665 2.88678C15.9735 3.25217 16.2255 3.67272 16.4498 4.12044C16.6743 4.54099 16.8986 4.98954 17.1223 5.40953L17.2066 5.57808C19.3319 9.74316 21.3783 13.948 23.3447 18.1904V18.2184C23.5692 18.6675 23.7652 19.1715 23.9895 19.6206C24.1295 19.9564 24.2698 20.2364 24.3538 20.5169C24.5775 21.2449 24.6615 21.946 24.5492 22.6745Z" fill="#909090"/>
</g>
<defs>
<clipPath id="clip0_56_605">
<rect width="89.7436" height="28" fill="white" transform="translate(0.346863)"/>
</clipPath>
</defs>
</svg>
