<svg width="154" height="40" viewBox="0 0 154 40" fill="none" xmlns="http://www.w3.org/2000/svg">
<path d="M76.8269 17.9816H76.7732L75.1674 22.5159H78.4148L76.8269 17.9816ZM79.7031 26.0943L78.9113 23.8636H74.7156L73.9284 26.0943H72.1302L75.8965 16.1754H77.896L81.6041 26.0943H79.7031ZM94.9248 15.7728H96.6782V17.4337H94.9248V15.7728ZM94.9248 18.5349H96.6379V26.0943H94.9203L94.9248 18.5349ZM82.2616 15.7728H84.0195V17.4337H82.2616V15.7728ZM82.2616 18.5349H83.9793V26.0943H82.2616V18.5349ZM93.0327 15.784H91.3195V26.0943H93.0327V15.784ZM87.5711 22.4099V26.0943H85.8445V20.4807C85.8445 19.9385 85.7864 18.9097 85.764 18.5407H87.1506C87.2982 18.5407 87.3475 18.602 87.3475 18.7474V19.6867H87.4011C87.5353 19.3571 88.0229 18.3784 89.4453 18.3784C89.9239 18.3784 90.2773 18.5349 90.3354 18.5573C90.3354 18.8816 90.2818 19.5973 90.2818 19.7874C90.2818 19.9104 90.2147 19.9497 90.1565 19.9497C90.0939 19.9497 90.0671 19.9497 90.0402 19.8938C89.9329 19.8379 89.6824 19.7762 89.3335 19.7762C88.4165 19.7762 87.5622 20.4359 87.5622 22.3817M103.177 26.0666V21.1852C103.177 20.2517 102.753 19.6867 101.961 19.6867C100.905 19.6867 100.207 20.8108 100.207 22.3204V26.0666H98.4898V20.5142C98.4898 19.905 98.4316 19.0104 98.4048 18.5125H99.7825C99.939 18.5125 99.9837 18.5743 99.9837 18.7138V19.659H100.037C100.243 19.3011 100.771 18.3506 102.354 18.3506C103.978 18.3506 104.891 19.4631 104.891 20.7155V26.0666H103.177ZM107.928 21.5095H111.104C111.171 20.2906 110.527 19.6084 109.565 19.6084C108.554 19.6084 107.973 20.3411 107.928 21.5095ZM112.159 24.4058C112.253 24.4058 112.285 24.4898 112.289 24.5735C112.343 24.8978 112.352 25.6247 112.343 25.8094C112.159 25.8707 111.238 26.212 110.003 26.212C107.592 26.212 106.148 24.9649 106.148 22.2869C106.148 19.9886 107.378 18.3506 109.596 18.3506C111.775 18.3506 112.812 19.8097 112.812 21.6159C112.812 21.8284 112.812 22.1862 112.754 22.6671H107.905C107.905 23.9531 108.733 24.8812 110.249 24.8812C111.086 24.8812 111.752 24.5793 112.016 24.4505C112.07 24.4505 112.097 24.3946 112.159 24.3946M116.181 26.2008C118.413 26.2008 119.477 25.2838 119.477 23.9307C119.477 22.5942 118.529 22.0297 117.522 21.6996C117.236 21.6047 116.95 21.5095 116.69 21.42C116.002 21.1964 115.644 20.8944 115.644 20.4471C115.644 19.9775 116.073 19.6478 116.968 19.6478C117.764 19.6478 118.413 19.9721 118.668 20.0951C118.726 20.0951 118.744 20.151 118.811 20.151C118.869 20.151 118.936 20.0951 118.949 19.9886C118.949 19.7314 119.003 19.273 119.003 18.8315C118.793 18.7362 118.041 18.3506 116.834 18.3506C114.991 18.3506 113.855 19.3123 113.855 20.576C113.855 21.806 114.696 22.3652 115.621 22.6725C115.832 22.7454 116.225 22.8737 116.458 22.952C117.42 23.2709 117.692 23.5617 117.692 24.0144C117.692 24.6017 117.066 24.8924 115.988 24.8924C115.107 24.8924 114.499 24.5681 114.257 24.4505C114.199 24.4505 114.177 24.3946 114.105 24.3946C113.984 24.3946 113.975 24.5623 113.975 24.5905C113.975 24.6741 113.922 25.4569 113.922 25.7141C114.123 25.8036 115 26.2008 116.172 26.2008M15.0813 17.9422H15.0276L13.4174 22.477H16.6603L15.0813 17.9422ZM17.9575 26.0554L17.1702 23.8243H12.9656L12.1828 26.0554H10.3846L14.1509 16.1307H16.1459L19.854 26.0554H17.9575ZM45.9809 15.7339H47.7344V17.3943H45.9809V15.7339ZM45.9809 18.496H47.6986V26.0943H45.9809V18.496ZM42.2997 22.3705V26.0554H40.5865V20.4418C40.5865 19.8992 40.5239 18.8704 40.5015 18.496H41.8837C42.0313 18.496 42.0805 18.5631 42.0805 18.7085V19.6478H42.1342C42.2683 19.3177 42.7559 18.3394 44.1783 18.3394C44.6569 18.3394 45.0148 18.496 45.0685 18.5184C45.0685 18.8427 45.0148 19.5583 45.0148 19.7484C45.0148 19.8714 44.9477 19.9104 44.8851 19.9104C44.8224 19.9104 44.7956 19.9104 44.7688 19.8545C44.6569 19.7985 44.4109 19.7314 44.062 19.7314C43.1495 19.7314 42.2907 20.397 42.2907 22.3428M29.6186 26.0272V21.191C29.6186 20.3188 29.2563 19.6478 28.3662 19.6478C27.3687 19.6478 26.7872 20.7379 26.7872 22.2757V26.0272H25.074V21.174C25.074 20.3858 24.743 19.6478 23.8216 19.6478C22.8107 19.6478 22.2382 20.7379 22.2382 22.3316V26.0272H20.525V20.52C20.525 19.8097 20.4624 18.8091 20.44 18.4678H21.8087C21.9653 18.4678 22.0145 18.5237 22.0234 18.6803V19.6196H22.0771C22.1845 19.4018 22.7481 18.3113 24.3271 18.3113C25.7897 18.3113 26.3489 19.3624 26.4875 19.6867C26.6217 19.4018 27.2792 18.3113 28.7553 18.3113C30.2896 18.3113 31.3407 19.1388 31.3407 20.7938V26.0272H29.6186ZM34.369 21.4706H37.5448C37.6119 20.2517 36.9723 19.5695 36.0061 19.5695C34.9952 19.5695 34.4182 20.3018 34.369 21.4706ZM38.6005 24.3668C38.6944 24.3668 38.7212 24.4505 38.7302 24.5346C38.7839 24.8589 38.7883 25.5857 38.7839 25.77C38.6005 25.8317 37.679 26.1726 36.44 26.1726C34.0335 26.1726 32.5887 24.926 32.5887 22.2475C32.5887 19.9497 33.8188 18.3113 36.0419 18.3113C38.2158 18.3113 39.2535 19.7708 39.2535 21.5766C39.2535 21.789 39.2535 22.1469 39.1909 22.6224H34.3511C34.3511 23.9137 35.1741 24.8419 36.686 24.8419C37.5269 24.8419 38.1934 24.5399 38.4618 24.4116C38.5155 24.4116 38.5378 24.3557 38.6049 24.3557M60.1157 22.1804H59.825C57.6734 22.1804 57.2485 22.9297 57.2485 23.6901C57.2485 24.3109 57.6555 24.9036 58.4607 24.9036C59.5342 24.9036 60.1157 23.869 60.1157 22.7843V22.1804ZM60.5317 26.016C60.393 26.016 60.2767 25.9601 60.2588 25.77C60.2588 25.524 60.2052 25.0432 60.2052 25.0432C60.1023 25.1832 59.4761 26.1614 57.906 26.1614C56.4031 26.1614 55.5398 24.9984 55.5398 23.7294C55.5398 21.9626 57.253 21.0792 59.7981 21.0792H60.1336V20.7996C60.1336 20.011 59.5655 19.5861 58.5188 19.5861C57.5705 19.5861 56.7833 19.9162 56.4791 20.0727C56.4791 20.0727 56.4031 20.1286 56.3539 20.1286C56.2689 20.1286 56.2242 20.0727 56.2197 19.9886C56.2197 19.7037 56.1615 19.1558 56.1615 18.8091C56.4747 18.6915 57.499 18.3113 58.6262 18.3113C60.8761 18.3113 61.8378 19.3512 61.8378 21.0174V23.9643C61.8378 25.0378 61.9362 25.7423 61.9765 26.0272L60.5317 26.016ZM54.6049 24.3557C54.6586 24.3557 54.7168 24.3557 54.7257 24.5176C54.7794 24.8754 54.7794 25.4681 54.7794 25.6528C54.4394 25.8206 53.6969 26.1614 52.7844 26.1614C50.4987 26.1614 49.0942 24.8307 49.0942 22.231C49.0942 19.7985 50.3421 18.3001 52.7844 18.3001C53.5985 18.3001 54.3455 18.5855 54.7794 18.8091C54.7794 19.0775 54.7257 19.6867 54.7257 19.9439C54.7257 20.0504 54.6676 20.1005 54.6049 20.1005C54.5334 20.1005 54.511 20.1005 54.4663 20.0446C53.9206 19.7762 53.4017 19.642 52.932 19.642C51.4783 19.642 50.8744 20.5983 50.8744 22.2086C50.8744 23.6453 51.3531 24.7694 52.932 24.7694C53.5359 24.7694 54.0816 24.5569 54.4215 24.3946C54.5199 24.3387 54.5289 24.3333 54.6049 24.3333M68.0106 25.9937V21.1127C68.0106 20.1787 67.5856 19.6143 66.7939 19.6143C65.7338 19.6143 65.0315 20.7325 65.0315 22.2475V25.9937H63.3184V20.4418C63.3184 19.8321 63.2647 18.9375 63.2379 18.4343H64.6111C64.7676 18.4343 64.8124 18.5014 64.8124 18.6414V19.5861H64.8705C65.0763 19.2282 65.6086 18.2777 67.1831 18.2777C68.8157 18.2777 69.7282 19.3906 69.7282 20.643V25.9937H68.0106ZM143.435 29.2424L143.645 29.9747L143.851 29.2424H144.025L144.159 30.1594H144.025L143.922 29.4102L143.712 30.1594H143.56L143.354 29.4155L143.26 30.1594H143.131L143.265 29.2424H143.435ZM143.005 29.2424V29.3596H142.732V30.1594H142.598V29.3596H142.33V29.2424H143.005ZM120.949 9.8407L125.194 16.7904C125.802 17.7132 126.294 17.9758 127.86 17.9758H131.684C128.15 13.5645 126.477 11.3056 125.932 10.8024C125.444 10.3269 124.957 9.8407 123.767 9.8407H120.949ZM132.731 18.3394C130.986 18.3394 129.291 18.5125 128.446 18.9151C127.725 19.3011 127.533 19.5413 127.533 19.9833C127.533 20.3858 127.609 20.7267 127.86 21.1239L129.957 24.5905C129.957 24.5905 129.81 24.1821 129.81 23.7182C129.81 21.5207 132.203 20.0727 135.195 20.0727C136.135 20.0727 136.537 20.2347 136.537 20.2347C136.247 19.2506 135.567 18.3394 132.731 18.3394ZM133.84 20.643C132.981 20.805 132.221 21.1181 131.653 21.5712C130.789 22.2475 130.311 23.2039 130.405 24.5569C130.405 24.6911 130.467 25.0713 130.534 25.3786C130.588 25.5016 130.588 25.5075 130.588 25.6023L132.288 28.4315C133.008 29.5891 134.198 30.12 135.687 30.12H141.681L134.659 21.6047L133.84 20.643Z" fill="#909090"/>
</svg>
