<svg width="142" height="40" viewBox="0 0 142 40" fill="none" xmlns="http://www.w3.org/2000/svg">
<g clip-path="url(#clip0_56_615)">
<path d="M67.9816 31.2897H63.5907C63.5629 31.2897 63.5629 31.2897 63.549 31.2758L59.7696 26.6627L55.9901 31.2758C55.9763 31.2897 55.9624 31.2897 55.9485 31.2897H52.433C52.4052 31.2897 52.3913 31.2758 52.3774 31.2619C52.3774 31.248 52.3774 31.2203 52.3913 31.2064L57.9632 24.37L52.4608 17.6031C52.4469 17.5753 52.4469 17.5614 52.4469 17.5336C52.4608 17.5198 52.4747 17.5059 52.4886 17.5059H56.8794C56.8933 17.5059 56.9072 17.5198 56.9211 17.5336L60.242 21.6466L63.6185 17.5336C63.6324 17.5198 63.6463 17.5059 63.6602 17.5059H67.2312C67.2451 17.5059 67.2729 17.5198 67.2868 17.5336C67.3007 17.5614 67.2868 17.5753 67.2729 17.6031L62.0623 23.8698L68.0371 31.2064C68.051 31.2203 68.051 31.248 68.051 31.2619C68.0232 31.2897 68.0093 31.2897 67.9816 31.2897Z" fill="#909090"/>
<path d="M91.7282 19.9236C89.7829 19.9236 88.4628 21.1047 88.0738 23.1472H94.6878V23.0083C94.6878 21.3826 93.4789 19.9236 91.7282 19.9236ZM98.0921 25.2593C98.0782 25.2732 98.0643 25.2871 98.0504 25.2871H88.0043C88.2127 27.6214 89.7273 28.9554 92.1867 28.9554C93.7013 28.9554 95.3131 28.4412 97.578 27.2324C97.6197 27.2046 97.6613 27.2463 97.6613 27.288V30.3726C97.6613 30.4004 97.6475 30.4143 97.6336 30.4143C95.5215 31.3036 93.3956 31.915 91.7282 31.915C87.4068 31.915 84.2665 28.7608 84.2665 24.4256C84.2665 20.0903 87.4068 16.9362 91.7282 16.9362C95.6744 16.9362 98.2032 19.5901 98.2032 23.2445C98.2032 23.842 98.106 25.2176 98.0921 25.2593Z" fill="#909090"/>
<path d="M118.49 14.6434C117.253 14.6434 116.253 13.6569 116.253 12.448C116.253 11.1974 117.253 10.1831 118.49 10.1831C119.727 10.1831 120.727 11.1974 120.727 12.448C120.727 13.6569 119.727 14.6434 118.49 14.6434ZM116.684 31.2897C116.642 31.2897 116.628 31.2758 116.628 31.2341V17.5475C116.628 17.5197 116.642 17.4919 116.67 17.4919H120.296C120.324 17.4919 120.338 17.5197 120.338 17.5475V31.2341C120.338 31.2758 120.31 31.2897 120.282 31.2897H116.684Z" fill="#909090"/>
<path d="M74.6234 29.2333C73.9703 29.2333 73.3033 29.136 72.5252 28.9415L72.5391 20.1598C73.4423 19.868 74.2204 19.743 74.9985 19.743C77.5135 19.743 79.1948 21.591 79.1948 24.3561C79.1948 27.3157 77.4024 29.2333 74.6234 29.2333ZM75.6099 16.9362C74.5817 16.9362 73.5535 17.1168 72.4697 17.492H68.8569C68.8292 17.492 68.8014 17.5197 68.8014 17.5475V39.988C69.8852 39.8352 71.2191 39.4461 72.5252 38.529V31.7066C73.4145 31.8316 74.1509 31.915 74.8596 31.915C79.8062 31.915 83.0021 28.9554 83.0021 24.37C83.0021 19.9931 79.9591 16.9362 75.6099 16.9362Z" fill="#909090"/>
<path d="M110.083 28.0939C108.958 28.6914 107.944 28.9693 106.999 28.9693C104.762 28.9693 103.414 27.3852 103.414 24.7313C103.414 21.6744 105.123 19.6874 107.777 19.6874C108.513 19.6874 109.222 19.868 110.083 20.2571V28.0939ZM110.083 10.2527V17.4086C109.027 17.1029 108.096 16.964 107.152 16.964C102.844 16.964 99.6066 20.2015 99.6066 24.509C99.6066 28.7886 102.469 31.9011 106.415 31.9011C107.777 31.9011 109.055 31.5537 110.556 30.7895V32.0262C111.542 31.8316 112.682 31.4426 113.807 30.6367V8.77979C112.71 8.93263 111.403 9.3078 110.083 10.2527Z" fill="#909090"/>
<path d="M132.913 28.0661C131.815 28.6914 130.884 28.9971 130.051 28.9971C127.647 28.9971 126.216 27.413 126.216 24.7591C126.216 21.7439 127.911 19.7152 130.426 19.7152C131.093 19.7152 131.913 19.9792 132.913 20.5072V28.0661ZM136.637 17.3253C136.637 17.2419 136.567 17.1724 136.484 17.1724H133.552C133.469 17.1724 133.385 17.2419 133.385 17.3253V17.8255H133.316C131.968 17.228 130.801 16.964 129.675 16.964C125.618 16.964 122.436 20.3266 122.436 24.634C122.436 28.9832 125.285 31.9011 129.523 31.9011C130.648 31.9011 132.107 31.8178 133.469 30.2615V32.0262C134.428 31.8178 135.567 31.4148 136.637 30.6367V17.3253Z" fill="#909090"/>
<path d="M42.4008 27.8715H51.5021C51.3631 28.8859 51.0157 30.0808 50.2376 31.2897H40.7751C39.6218 31.2897 38.663 30.3865 38.5519 29.261C38.5519 29.2471 38.538 29.2332 38.538 29.2055V11.2531C38.538 11.2392 38.5519 11.2253 38.5519 11.2114C38.663 10.072 39.6218 9.16882 40.7751 9.16882H51.4882C51.3492 10.1832 51.0018 11.4059 50.2098 12.6148H42.4008V17.5058H50.1403C50.1681 17.5058 50.1959 17.5336 50.1959 17.5614V20.9518C50.1959 20.9796 50.1681 21.0074 50.1403 21.0074H42.4008V27.8715Z" fill="#909090"/>
<path d="M31.0069 31.5816C30.1037 31.5816 29.5479 30.8729 29.5479 30.0114C29.5479 29.0943 30.1871 28.4413 31.0069 28.4413C31.8128 28.4413 32.452 29.0804 32.452 30.0114C32.452 30.9424 31.8128 31.5816 31.0069 31.5816ZM31.0069 28.2745C30.0898 28.2745 29.2978 28.9693 29.2978 30.0114C29.2978 30.998 30.0064 31.7483 31.0069 31.7483C31.9101 31.7483 32.7021 31.0535 32.7021 30.0114C32.7021 28.9693 31.924 28.2745 31.0069 28.2745Z" fill="#909090"/>
<path d="M30.6039 29.8724V29.2332H31.0347C31.257 29.2332 31.5071 29.261 31.5071 29.525C31.5071 29.8446 31.2709 29.8585 31.0069 29.8585C30.993 29.8724 30.6039 29.8724 30.6039 29.8724ZM31.8128 29.5667C31.8128 29.1499 31.5627 28.9692 31.0625 28.9692H30.2843V31.0257H30.6178V30.1503H30.9374L31.4654 31.0257H31.8545L31.2848 30.1225C31.5905 30.0947 31.8128 29.9419 31.8128 29.5667Z" fill="#909090"/>
<path d="M139.638 19.7708C138.735 19.7708 138.179 19.0621 138.179 18.2006C138.179 17.2836 138.818 16.6305 139.638 16.6305C140.444 16.6305 141.083 17.2697 141.083 18.2006C141.083 19.1316 140.444 19.7708 139.638 19.7708ZM139.638 16.4777C138.721 16.4777 137.929 17.1724 137.929 18.2145C137.929 19.2011 138.638 19.9514 139.638 19.9514C140.541 19.9514 141.333 19.2567 141.333 18.2145C141.333 17.1585 140.541 16.4777 139.638 16.4777Z" fill="#909090"/>
<path d="M139.221 18.0616V17.4364H139.652C139.874 17.4364 140.125 17.4642 140.125 17.7282C140.125 18.0477 139.888 18.0616 139.624 18.0616H139.221ZM140.444 17.7698C140.444 17.353 140.194 17.1724 139.694 17.1724H138.916V19.2288H139.249V18.3534H139.569L140.097 19.2288H140.486L139.916 18.3257C140.208 18.2979 140.444 18.145 140.444 17.7698Z" fill="#909090"/>
<path d="M19.2656 12.6009L18.6125 10.739L12.9989 3.24959L13.9994 2.99948L23.6564 11.3504L29.3395 9.72467C30.0064 9.55793 30.7707 9.51624 31.3404 9.51624C29.5618 5.66732 26.2826 2.49925 21.9751 0.970801C13.4575 -2.07221 4.07832 2.38809 1.04921 10.9196C0.104347 13.5597 -0.104079 16.2831 0.284982 18.8676L13.8882 14.1433L19.2656 12.6009Z" fill="#909090"/>
<path d="M31.9518 10.9891C31.4515 11.3087 30.7151 11.7395 29.9926 11.9757L24.2956 13.6014L20.5023 25.8012L19.5157 26.1208L20.3216 16.8112L19.877 14.8797L14.5413 16.4082L0.42395 19.7013C1.54945 25.1204 5.38447 29.8586 10.9842 31.8456C19.5157 34.8886 28.881 30.4283 31.924 21.8967C33.2301 18.2423 33.1467 14.4073 31.9518 10.9891Z" fill="#909090"/>
<path d="M19.8631 14.8658L20.3077 16.7973L19.5018 26.1069L20.4883 25.7873L24.2817 13.5875L29.9787 11.9618C30.7012 11.7256 31.4376 11.3087 31.9379 10.9752C31.7572 10.475 31.5627 9.98869 31.3404 9.50236C30.7568 9.50236 30.0064 9.53015 29.3395 9.71079L23.6564 11.3365L13.9994 2.9856L12.9989 3.23571L18.5986 10.7251L19.2517 12.5871L13.8743 14.1294L0.271088 18.8537C0.312773 19.1316 0.368353 19.4234 0.423933 19.7013L14.5274 16.3804L19.8631 14.8658Z" fill="#909090"/>
</g>
<defs>
<clipPath id="clip0_56_615">
<rect width="141.243" height="40" fill="white" transform="translate(0.0904541)"/>
</clipPath>
</defs>
</svg>
