<svg width="122" height="24" viewBox="0 0 122 24" fill="none" xmlns="http://www.w3.org/2000/svg">
<path fill-rule="evenodd" clip-rule="evenodd" d="M15.3334 7.01118C14.3467 6.3519 13.1867 6 12 6V0C14.3734 0 16.6934 0.703788 18.6668 2.02237C20.6402 3.34094 22.1783 5.21509 23.0866 7.40778C23.9948 9.60048 24.2324 12.0133 23.7694 14.3411C23.3064 16.6688 22.1635 18.8071 20.4853 20.4853C18.8071 22.1635 16.6688 23.3064 14.3411 23.7694C12.0133 24.2324 9.60048 23.9948 7.40778 23.0866C5.21508 22.1783 3.34094 20.6402 2.02237 18.6668C0.703788 16.6934 0 14.3734 0 12H6C6 13.1867 6.3519 14.3467 7.01118 15.3334C7.67046 16.3201 8.60754 17.0891 9.70392 17.5433C10.8002 17.9974 12.0067 18.1162 13.1705 17.8847C14.3344 17.6532 15.4035 17.0818 16.2427 16.2427C17.0818 15.4035 17.6532 14.3344 17.8847 13.1705C18.1162 12.0067 17.9974 10.8002 17.5433 9.70392C17.0891 8.60754 16.3201 7.67046 15.3334 7.01118Z" fill="#35AFF4"/>
<path fill-rule="evenodd" clip-rule="evenodd" d="M6 3.17096e-06C6 0.787934 5.84481 1.56815 5.54328 2.29611C5.24175 3.02406 4.79979 3.68549 4.24264 4.24264C3.68549 4.7998 3.02406 5.24175 2.2961 5.54328C1.56814 5.84481 0.787929 6 2.62266e-07 6L0 12C1.57586 12 3.13629 11.6896 4.5922 11.0866C6.04812 10.4835 7.371 9.59958 8.48526 8.48526C9.59958 7.371 10.4835 6.04812 11.0866 4.5922C11.6896 3.13629 12 1.57586 12 0L6 3.17096e-06Z" fill="#35AFF4"/>
<path d="M75.3714 8.67139H72.4602V17.9188H75.3714V8.67139Z" fill="#35AFF4"/>
<path d="M72.7842 6.93991C73.0884 7.24435 73.4688 7.39657 73.9254 7.39657C74.382 7.39657 74.7564 7.24435 75.048 6.93991C75.3402 6.62281 75.486 6.24223 75.486 5.79826C75.486 5.34161 75.3402 4.96105 75.048 4.65662C74.7564 4.35217 74.382 4.19995 73.9254 4.19995C73.4688 4.19995 73.0884 4.35217 72.7842 4.65662C72.492 4.96105 72.3462 5.34161 72.3462 5.79826C72.3462 6.24223 72.492 6.62281 72.7842 6.93991Z" fill="#35AFF4"/>
<path d="M30.6937 17.9188V4.48535H33.6811V15.293H39.6367V17.9188H30.6937Z" fill="#35AFF4"/>
<path fill-rule="evenodd" clip-rule="evenodd" d="M45.0164 18.1282C44.0651 18.1282 43.2025 17.9189 42.4287 17.5003C41.6676 17.069 41.0651 16.4855 40.6211 15.7497C40.1771 15.014 39.9551 14.1895 39.9551 13.2761C39.9551 12.3628 40.1771 11.5447 40.6211 10.8216C41.0651 10.0985 41.6676 9.5277 42.4287 9.10914C43.1898 8.6778 44.0524 8.46216 45.0164 8.46216C45.9805 8.46216 46.8431 8.6715 47.6042 9.09006C48.3653 9.50868 48.9679 10.0859 49.4118 10.8216C49.8558 11.5447 50.0778 12.3628 50.0778 13.2761C50.0778 14.1895 49.8558 15.014 49.4118 15.7497C48.9679 16.4855 48.3653 17.069 47.6042 17.5003C46.8431 17.9189 45.9805 18.1282 45.0164 18.1282ZM45.0164 15.4834C45.4351 15.4834 45.8029 15.3946 46.1201 15.217C46.4372 15.0267 46.6782 14.7667 46.8431 14.4368C47.0207 14.0944 47.1095 13.7074 47.1095 13.2761C47.1095 12.8449 47.0207 12.4706 46.8431 12.1535C46.6655 11.8237 46.4182 11.57 46.101 11.3924C45.7966 11.2021 45.4351 11.107 45.0164 11.107C44.6105 11.107 44.249 11.2021 43.9319 11.3924C43.6148 11.57 43.3674 11.8237 43.1898 12.1535C43.0122 12.4834 42.9235 12.8639 42.9235 13.2952C42.9235 13.7138 43.0122 14.0944 43.1898 14.4368C43.3674 14.7667 43.6148 15.0267 43.9319 15.217C44.249 15.3946 44.6105 15.4834 45.0164 15.4834Z" fill="#35AFF4"/>
<path fill-rule="evenodd" clip-rule="evenodd" d="M52.3834 21.5341C53.1572 21.8893 54.0515 22.0669 55.0663 22.0669C56.0557 22.0669 56.9374 21.8703 57.7111 21.477C58.4849 21.0838 59.0938 20.5384 59.5377 19.8407C59.9817 19.143 60.204 18.3185 60.204 17.3671V8.67152H57.3496V9.29282C57.1373 9.11414 56.8962 8.96414 56.6266 8.84276C56.1318 8.60174 55.5673 8.4812 54.9331 8.4812C54.0832 8.4812 53.3284 8.68418 52.6688 9.09008C52.0091 9.48332 51.4891 10.0288 51.1085 10.7265C50.728 11.4115 50.5378 12.1852 50.5378 13.0479C50.5378 13.8978 50.728 14.6715 51.1085 15.3692C51.4891 16.0669 52.0091 16.6187 52.6688 17.0246C53.3284 17.4305 54.0832 17.6335 54.9331 17.6335C55.5546 17.6335 56.1191 17.513 56.6266 17.272C56.8723 17.1552 57.0943 17.0176 57.2925 16.8592V17.4432C57.2925 18.0901 57.0832 18.5912 56.6646 18.9464C56.2587 19.3016 55.6942 19.4791 54.9711 19.4791C54.3877 19.4791 53.8866 19.3777 53.468 19.1747C53.0621 18.9718 52.6942 18.6736 52.3643 18.2804L50.5758 20.069C51.0197 20.7033 51.6223 21.1917 52.3834 21.5341ZM56.5314 14.7793C56.2396 14.9569 55.8908 15.0457 55.4849 15.0457C55.079 15.0457 54.7238 14.9569 54.4193 14.7793C54.1275 14.6017 53.8992 14.3607 53.7344 14.0563C53.5694 13.7392 53.487 13.403 53.487 13.0479C53.487 12.6673 53.5694 12.3248 53.7344 12.0204C53.8992 11.7159 54.1339 11.4749 54.4383 11.2973C54.7428 11.1197 55.0916 11.0309 55.4849 11.0309C55.8908 11.0309 56.2396 11.1197 56.5314 11.2973C56.8358 11.4749 57.0641 11.7159 57.2164 12.0204C57.3813 12.3248 57.4637 12.6673 57.4637 13.0479C57.4637 13.4284 57.3813 13.7709 57.2164 14.0753C57.0641 14.3671 56.8358 14.6017 56.5314 14.7793Z" fill="#35AFF4"/>
<path fill-rule="evenodd" clip-rule="evenodd" d="M66.3306 18.1282C65.379 18.1282 64.5162 17.9189 63.7428 17.5003C62.9814 17.069 62.379 16.4855 61.935 15.7497C61.491 15.014 61.269 14.1895 61.269 13.2761C61.269 12.3628 61.491 11.5447 61.935 10.8216C62.379 10.0985 62.9814 9.5277 63.7428 9.10914C64.5036 8.6778 65.3664 8.46216 66.3306 8.46216C67.2942 8.46216 68.157 8.6715 68.9178 9.09006C69.6792 9.50868 70.2816 10.0859 70.7256 10.8216C71.1696 11.5447 71.3916 12.3628 71.3916 13.2761C71.3916 14.1895 71.1696 15.014 70.7256 15.7497C70.2816 16.4855 69.6792 17.069 68.9178 17.5003C68.157 17.9189 67.2942 18.1282 66.3306 18.1282ZM66.3306 15.4834C66.7488 15.4834 67.1166 15.3946 67.434 15.217C67.7508 15.0267 67.992 14.7667 68.157 14.4368C68.3346 14.0944 68.4234 13.7074 68.4234 13.2761C68.4234 12.8449 68.3346 12.4706 68.157 12.1535C67.9794 11.8237 67.7322 11.57 67.4148 11.3924C67.1106 11.2021 66.7488 11.107 66.3306 11.107C65.9244 11.107 65.5626 11.2021 65.2458 11.3924C64.9284 11.57 64.6812 11.8237 64.5036 12.1535C64.326 12.4834 64.2372 12.8639 64.2372 13.2952C64.2372 13.7138 64.326 14.0944 64.5036 14.4368C64.6812 14.7667 64.9284 15.0267 65.2458 15.217C65.5626 15.3946 65.9244 15.4834 66.3306 15.4834Z" fill="#35AFF4"/>
<path fill-rule="evenodd" clip-rule="evenodd" d="M82.3686 18.1092C81.7476 18.1092 81.1764 17.9887 80.6562 17.7477C80.3826 17.6208 80.1354 17.4694 79.9146 17.2933V21.8196H77.0412V8.67152H79.9524V9.30974C80.1636 9.137 80.3982 8.98766 80.6562 8.86178C81.1764 8.60804 81.7476 8.4812 82.3686 8.4812C83.244 8.4812 84.018 8.69054 84.69 9.10916C85.3752 9.52772 85.908 10.0986 86.2884 10.8216C86.682 11.5447 86.8782 12.3692 86.8782 13.2952C86.8782 14.2212 86.682 15.0457 86.2884 15.7688C85.908 16.4919 85.3752 17.0626 84.69 17.4813C84.018 17.8999 83.244 18.1092 82.3686 18.1092ZM81.8364 15.4834C82.2546 15.4834 82.6164 15.3882 82.9206 15.198C83.238 15.0077 83.4852 14.7476 83.6628 14.4178C83.8404 14.088 83.9292 13.7138 83.9292 13.2952C83.9292 12.8639 83.8404 12.4834 83.6628 12.1536C83.4852 11.8237 83.238 11.5701 82.9206 11.3925C82.6164 11.2021 82.2612 11.107 81.855 11.107C81.4494 11.107 81.0876 11.2021 80.7708 11.3925C80.466 11.5701 80.2254 11.8237 80.0478 12.1536C79.8702 12.4834 79.7814 12.8639 79.7814 13.2952C79.7814 13.7138 79.8636 14.088 80.0286 14.4178C80.2062 14.7476 80.4534 15.0077 80.7708 15.198C81.0876 15.3882 81.4428 15.4834 81.8364 15.4834Z" fill="#35AFF4"/>
<path d="M89.7276 17.9378C90.2604 18.0774 90.7992 18.1471 91.3446 18.1471C92.499 18.1471 93.4122 17.8808 94.0848 17.348C94.7694 16.8152 95.112 16.0985 95.112 15.1979C95.112 14.6144 95.0046 14.145 94.7886 13.7898C94.5732 13.422 94.2942 13.1302 93.9516 12.9146C93.609 12.6989 93.2472 12.5276 92.8668 12.4008C92.4864 12.2739 92.1246 12.1661 91.7826 12.0773C91.44 11.9885 91.161 11.8871 90.945 11.7729C90.7296 11.6587 90.6216 11.5065 90.6216 11.3162C90.6216 11.1386 90.7044 11.0054 90.8688 10.9166C91.0338 10.8152 91.281 10.7645 91.611 10.7645C91.9536 10.7645 92.3022 10.8342 92.6574 10.9737C93.0252 11.1132 93.3552 11.3543 93.6468 11.6968L95.3022 10.0224C94.884 9.48959 94.3386 9.08999 93.666 8.82365C93.0066 8.54459 92.2836 8.40503 91.497 8.40503C90.7488 8.40503 90.0954 8.53187 89.5374 8.78555C88.9788 9.03929 88.5474 9.38813 88.2432 9.83207C87.939 10.2633 87.7866 10.7771 87.7866 11.3733C87.7866 11.9315 87.8946 12.3945 88.11 12.7623C88.3254 13.1175 88.605 13.3966 88.947 13.5995C89.2896 13.8025 89.6514 13.9611 90.0318 14.0752C90.4122 14.1894 90.774 14.2972 91.1166 14.3987C91.4586 14.4875 91.7382 14.5953 91.9536 14.7222C92.1822 14.8364 92.2962 15.0076 92.2962 15.2359C92.2962 15.4135 92.2008 15.553 92.0106 15.6545C91.833 15.756 91.5732 15.8067 91.2306 15.8067C90.7356 15.8067 90.279 15.7179 89.8608 15.5403C89.442 15.3501 89.0802 15.09 88.776 14.7602L87.1206 16.4346C87.438 16.7771 87.8184 17.0816 88.2624 17.348C88.719 17.6017 89.2074 17.7983 89.7276 17.9378Z" fill="#35AFF4"/>
<path d="M100.421 18.128C99.5712 18.128 98.8164 17.9568 98.157 17.6143C97.5096 17.2591 97.0026 16.7771 96.6348 16.1682C96.2664 15.5467 96.0828 14.8363 96.0828 14.0371V8.67139H98.994V13.9991C98.994 14.3162 99.0444 14.5889 99.1464 14.8172C99.2604 15.0456 99.4254 15.2232 99.6408 15.35C99.8568 15.4769 100.117 15.5403 100.421 15.5403C100.852 15.5403 101.195 15.4071 101.449 15.1407C101.702 14.8616 101.829 14.4811 101.829 13.9991V8.67139H104.74V14.0181C104.74 14.83 104.557 15.5467 104.188 16.1682C103.82 16.7771 103.313 17.2591 102.666 17.6143C102.019 17.9568 101.271 18.128 100.421 18.128Z" fill="#35AFF4"/>
<path d="M109.099 8.67152H106.187V17.9189H109.099V12.5151C109.099 12.198 109.162 11.9316 109.289 11.7159C109.429 11.5003 109.613 11.3353 109.841 11.2212C110.069 11.0943 110.329 11.0309 110.621 11.0309C111.04 11.0309 111.388 11.1641 111.667 11.4305C111.959 11.6842 112.105 12.0457 112.105 12.5151V17.9189H115.016V12.5151C115.016 12.198 115.08 11.9316 115.207 11.7159C115.346 11.5003 115.53 11.3353 115.759 11.2212C115.987 11.0943 116.247 11.0309 116.539 11.0309C116.957 11.0309 117.306 11.1641 117.585 11.4305C117.877 11.6842 118.022 12.0457 118.022 12.5151V17.9189H120.934V12.1916C120.934 11.4178 120.769 10.7582 120.439 10.2127C120.122 9.65456 119.684 9.22964 119.126 8.93792C118.581 8.63342 117.953 8.4812 117.242 8.4812C116.519 8.4812 115.866 8.63978 115.283 8.95694C114.904 9.15896 114.572 9.41972 114.289 9.73916C114.024 9.40502 113.702 9.1316 113.323 8.91884C112.816 8.62712 112.238 8.4812 111.592 8.4812C110.906 8.4812 110.291 8.62712 109.746 8.91884C109.508 9.04022 109.293 9.1856 109.099 9.35498V8.67152Z" fill="#35AFF4"/>
</svg>
