<svg width="156" height="28" viewBox="0 0 156 28" fill="none" xmlns="http://www.w3.org/2000/svg">
<g clip-path="url(#clip0_56_611)">
<path d="M17.4085 22.964C17.7666 22.964 18.1078 22.8788 18.4319 22.6911L22.1676 20.5418C22.9181 20.1153 23.7881 19.9278 24.658 20.0301C29.1955 20.5589 32.3683 21.4118 33.3064 21.6848C33.4941 21.7359 33.7158 21.6677 33.8352 21.5141C33.9888 21.3265 34.1764 21.0195 34.3299 20.576C34.4664 20.1495 34.4834 19.7913 34.4664 19.5354C34.4493 19.3307 34.3129 19.1431 34.1082 19.0919C32.6412 18.6654 26.1421 16.9085 17.4085 16.9085C8.67476 16.9085 2.1756 18.6655 0.708678 19.0919C0.503977 19.1431 0.367483 19.3307 0.350474 19.5355C0.33338 19.7742 0.350475 20.1325 0.486885 20.576C0.623296 21.0195 0.828082 21.3265 0.981587 21.5141C1.10099 21.6677 1.32278 21.7359 1.51039 21.6847C2.4486 21.4118 5.63843 20.5589 10.1588 20.0301C11.0287 19.9278 11.8987 20.1154 12.6492 20.5418L16.385 22.6911C16.7091 22.8788 17.0673 22.964 17.4085 22.964ZM11.1823 10.87C11.387 11.2281 11.7111 11.467 12.0863 11.5693C12.4615 11.6716 12.8539 11.6205 13.2121 11.4158C13.5703 11.2111 13.8092 10.887 13.9115 10.5117C14.0138 10.1364 13.9627 9.74417 13.758 9.38588L10.3976 3.56912C10.2953 3.38151 10.0735 3.3133 9.86878 3.33031C9.59588 3.34741 9.22058 3.48382 8.77707 3.73971C8.33357 3.99561 8.02656 4.25142 7.87305 4.47322C7.75357 4.64382 7.71946 4.86553 7.82177 5.05314L11.1823 10.87ZM8.11186 15.0321C8.46998 15.2368 8.87938 15.2709 9.23767 15.1856C9.61288 15.0832 9.93699 14.8444 10.1417 14.4862C10.3464 14.128 10.3806 13.7187 10.2953 13.3604C10.21 13.0021 9.95408 12.661 9.59588 12.4563L3.77911 9.09588C3.59142 8.99357 3.36971 9.02767 3.19911 9.14716C2.9774 9.30058 2.72151 9.60767 2.46561 10.0512C2.20971 10.4947 2.0733 10.87 2.0562 11.1429C2.03911 11.3646 2.1245 11.5694 2.29501 11.6717L8.11186 15.0321ZM18.8925 8.80596C18.8925 9.21537 18.7219 9.59058 18.466 9.86349C18.1931 10.1365 17.8349 10.29 17.4085 10.29C16.9991 10.29 16.6238 10.1194 16.3508 9.86349C16.0779 9.59058 15.9244 9.23237 15.9244 8.80596V2.1021C15.9244 1.88039 16.0608 1.7098 16.2655 1.6245C16.5044 1.50509 16.8967 1.43689 17.4085 1.43689C17.9203 1.43689 18.3125 1.50509 18.5513 1.6245C18.739 1.72689 18.8925 1.88039 18.8925 2.1021V8.80596ZM23.6346 10.87C23.4299 11.2281 23.1058 11.467 22.7305 11.5693C22.3552 11.6716 21.9629 11.6205 21.6047 11.4158C21.2465 11.2111 21.0077 10.887 20.9053 10.5117C20.8029 10.1364 20.8541 9.74417 21.0588 9.38588L24.4192 3.56912C24.5216 3.38151 24.7433 3.3133 24.948 3.33031C25.221 3.34741 25.5963 3.48382 26.0398 3.73971C26.4833 3.99561 26.7904 4.25142 26.9439 4.47322C27.0633 4.64382 27.0974 4.86553 26.9951 5.05314L23.6346 10.87ZM26.7051 15.0321C26.3469 15.2368 25.9374 15.2709 25.5792 15.1856C25.2039 15.0832 24.8798 14.8444 24.6751 14.4862C24.4704 14.128 24.4363 13.7187 24.5216 13.3604C24.6239 12.9852 24.8627 12.661 25.221 12.4563L31.0378 9.09588C31.2254 8.99357 31.4472 9.02767 31.6177 9.14716C31.8395 9.30058 32.0953 9.60767 32.3512 10.0512C32.6071 10.4947 32.7435 10.87 32.7606 11.1429C32.7777 11.3646 32.6924 11.5694 32.5218 11.6717L26.7051 15.0321Z" fill="#909090"/>
<path d="M63.8061 10.4094H66.6036C66.706 10.4094 66.7913 10.4776 66.8425 10.5629L69.6229 17.6932L72.3181 10.5629C72.3522 10.4606 72.4545 10.4094 72.5569 10.4094H75.3033C75.4909 10.4094 75.6103 10.597 75.525 10.7506L68.7018 26.4097C68.6676 26.495 68.5653 26.5632 68.48 26.5632H66.0578C65.8873 26.5632 65.7508 26.3756 65.8361 26.2221L68.173 20.7464L63.6014 10.7505C63.4991 10.5969 63.6185 10.4094 63.8061 10.4094ZM105.104 11.9958V10.6652C105.104 10.5287 105.223 10.4093 105.359 10.4093H107.833C107.969 10.4093 108.089 10.5287 108.089 10.6652V21.2923C108.089 21.4287 107.969 21.5482 107.833 21.5482H105.359C105.223 21.5482 105.104 21.4287 105.104 21.2923V19.8935C104.575 20.7123 103.415 21.787 101.521 21.787C97.9051 21.787 96.0287 19.0236 96.0287 15.9361C96.0287 11.9104 98.8261 10.1875 101.436 10.1875C103.159 10.1704 104.353 10.9892 105.104 11.9957V11.9958ZM99.0138 15.9533C99.0138 17.8638 100.191 19.3307 102.084 19.3307C103.978 19.3307 105.189 18.0514 105.189 16.0897C105.189 14.128 104.012 12.6269 101.999 12.6269C100.106 12.6269 99.0138 14.0939 99.0138 15.9533ZM110.323 21.2924V10.6652C110.323 10.5287 110.443 10.4093 110.579 10.4093H113.053C113.189 10.4093 113.308 10.5287 113.308 10.6652V12.1151C113.888 11.1087 114.98 10.1875 116.839 10.1875C118.75 10.1875 120.882 11.1257 120.882 15.4414V21.2923C120.882 21.4287 120.763 21.5482 120.626 21.5482H118.153C118.016 21.5482 117.897 21.4287 117.897 21.2923V15.4926C117.897 14.4521 117.641 12.661 115.799 12.661C113.957 12.661 113.308 14.2815 113.308 15.7826V21.2923C113.308 21.4287 113.189 21.5482 113.053 21.5482H110.579C110.426 21.5311 110.323 21.4287 110.323 21.2923L110.323 21.2924ZM122.997 21.2924V10.6652C122.997 10.5287 123.117 10.4093 123.253 10.4093H125.727C125.863 10.4093 125.983 10.5287 125.983 10.6652V12.1151C126.563 11.1087 127.654 10.1875 129.514 10.1875C131.424 10.1875 133.556 11.1257 133.556 15.4414V21.2923C133.556 21.4287 133.437 21.5482 133.3 21.5482H130.827C130.691 21.5482 130.571 21.4287 130.571 21.2923V15.4926C130.571 14.4521 130.315 12.661 128.473 12.661C126.631 12.661 125.983 14.2815 125.983 15.7826V21.2923C125.983 21.4287 125.863 21.5482 125.727 21.5482H123.253C123.117 21.5311 122.997 21.4288 122.997 21.2924ZM148.977 10.4094H151.382C151.518 10.4094 151.638 10.5288 151.638 10.6653V12.8657C152.115 10.6823 153.992 9.9318 155.356 10.2559C155.476 10.273 155.544 10.3753 155.544 10.4947V12.9169C155.544 13.0704 155.408 13.1898 155.237 13.1557C152.712 12.661 151.689 14.0257 151.689 15.9362V21.2924C151.689 21.4288 151.569 21.5482 151.433 21.5482H148.96C148.823 21.5482 148.704 21.4288 148.704 21.2924V10.6652C148.721 10.5287 148.84 10.4094 148.977 10.4094ZM47.4135 12.8316C46.6459 12.5757 46.2364 12.4222 45.6223 12.2175C44.9911 11.9958 43.9165 11.3816 43.9165 10.3923C43.9165 9.403 44.5988 8.7718 45.9805 8.7718C47.2429 8.7718 47.9422 9.3859 48.4028 10.3752C48.471 10.5117 48.6246 10.5629 48.761 10.4947L50.7909 9.3177C50.8932 9.24949 50.9444 9.113 50.8932 8.9936C50.2792 7.64599 48.8463 6.02547 46.0147 6.02547C42.8589 6.02547 40.8802 7.90188 40.8802 10.3753C40.8802 12.8317 42.5007 14.111 44.7012 14.8616C45.5029 15.1345 45.827 15.2539 46.5094 15.4757C47.8058 15.9192 48.4028 16.4991 48.4028 17.3009C48.4028 18.1027 47.8911 19.0578 45.8782 19.0578C44.0359 19.0578 43.3877 18.0855 43.0124 17.1644C42.9613 17.0279 42.7907 16.9597 42.6543 17.045L40.522 18.2732C40.4197 18.3414 40.3685 18.4608 40.4197 18.5802C41.2385 20.593 43.473 21.787 45.9805 21.787C48.9316 21.787 51.422 20.286 51.422 17.2497C51.422 14.2133 48.181 13.0875 47.4135 12.8317V12.8316ZM63.7038 18.6314C63.6355 18.512 63.465 18.4608 63.3455 18.5461C62.3903 19.2454 61.2645 19.2625 60.4116 17.9491C59.6952 16.8403 58.8253 15.4756 58.8253 15.4756L62.5779 10.8188C62.7144 10.6482 62.595 10.4094 62.3903 10.4094H59.4565C59.3712 10.4094 59.3029 10.4436 59.2518 10.5117L56.0107 14.9639V6.00846C56.0107 5.87197 55.8913 5.75256 55.7548 5.75256H53.2814C53.145 5.75256 53.0256 5.87197 53.0256 6.00846V21.2924C53.0256 21.4288 53.145 21.5482 53.2814 21.5482H55.7719C55.9083 21.5482 56.0278 21.4288 56.0278 21.2924V16.3285C56.0278 16.3285 57.6825 18.9383 58.3136 19.9106C59.1665 21.2411 60.3606 21.787 61.6569 21.787C62.8851 21.787 63.6697 21.4629 64.6079 20.5417C64.6932 20.4564 64.7103 20.337 64.6591 20.2347L63.7038 18.6314ZM81.4611 15.1174C80.6765 14.8275 80.4036 14.7251 79.8065 14.5034C79.2094 14.2816 78.6807 13.9575 78.6807 13.4798C78.6807 13.0022 79.1243 12.4734 80.0283 12.4734C80.8129 12.4734 81.2906 12.7804 81.5635 13.3263C81.6317 13.4627 81.7852 13.4969 81.9046 13.4286L83.6446 12.4222C83.764 12.354 83.7981 12.2005 83.7299 12.0811C83.2523 11.2452 82.314 10.1876 80.0453 10.1876C77.265 10.1876 75.8321 11.791 75.8321 13.5651C75.8321 15.3392 77.282 16.175 78.6124 16.7038C80.1136 17.3179 80.2159 17.352 80.4036 17.4203C80.8641 17.6079 81.427 17.8979 81.427 18.4267C81.427 18.9555 80.8129 19.4331 79.8748 19.4331C79.0048 19.4331 78.0155 19.0749 77.6061 18.0685C77.5549 17.932 77.3843 17.8638 77.2479 17.9491L75.4909 18.9555C75.3886 19.0237 75.3374 19.1431 75.3886 19.2625C75.9003 20.593 77.4185 21.77 79.8748 21.77C82.5358 21.77 84.3099 20.3542 84.3099 18.3584C84.3099 16.3626 82.9452 15.6633 81.4611 15.1174ZM91.4571 12.8316C92.5659 12.8316 93.3847 13.1728 94.1524 13.7186C94.2718 13.8039 94.4423 13.7698 94.5105 13.6504L95.534 11.8764C95.6023 11.757 95.5682 11.6205 95.4487 11.5523C94.3912 10.8358 93.0777 10.1706 91.3036 10.1706C89.5466 10.1706 87.9261 10.6482 86.7662 11.8252C85.6063 12.9851 85.0775 14.3669 85.0775 16.0045C85.0775 17.9831 85.8963 19.2455 86.7833 20.1325C87.6703 21.0195 89.2737 21.77 91.3207 21.77C93.163 21.77 94.5276 21.0024 95.4658 20.3883C95.5681 20.3201 95.6023 20.1666 95.534 20.0642L94.5276 18.3073C94.4594 18.1879 94.2888 18.1367 94.1695 18.222C93.5042 18.6996 92.5489 19.109 91.4742 19.109C90.2631 19.109 88.0626 18.4267 88.0626 15.9703C88.0626 13.5139 90.246 12.8316 91.4571 12.8316ZM141.642 19.3137C140.652 19.3137 139.714 19.0749 139.032 18.5291C138.349 17.9833 138.025 17.4203 138.025 16.755H146.862C146.998 16.755 147.117 16.6356 147.117 16.4991C147.066 13.8722 146.213 12.644 145.395 11.8081C144.542 10.9552 143.092 10.1705 141.181 10.1705C139.271 10.1705 137.804 10.87 136.797 11.8594C135.808 12.8487 135.057 14.111 135.057 16.0215C135.057 17.932 135.825 19.1943 136.763 20.1325C137.702 21.0707 139.237 21.77 141.437 21.77C143.518 21.77 145.275 21.0365 146.537 19.5866C146.64 19.4672 146.606 19.2796 146.469 19.2114L144.712 18.1879C144.627 18.1366 144.507 18.1366 144.422 18.222C143.552 19.0408 142.444 19.3137 141.642 19.3137ZM141.164 12.5587C142.58 12.5587 143.876 13.4116 144.081 14.9468H138.128C138.52 13.2922 139.748 12.5587 141.164 12.5587Z" fill="#909090"/>
</g>
<defs>
<clipPath id="clip0_56_611">
<rect width="155.211" height="28" fill="white" transform="translate(0.333374)"/>
</clipPath>
</defs>
</svg>
