<svg width="140" height="140" viewBox="0 0 140 140" fill="none" xmlns="http://www.w3.org/2000/svg">
<g clip-path="url(#clip0_33_1022)">
<path d="M59.8692 13.1731C59.6389 13.2079 59.4286 13.1563 59.2382 13.0184C59.0475 12.8777 58.9345 12.6908 58.8993 12.4577C58.8646 12.2273 58.9178 12.0182 59.0589 11.8302C59.1996 11.6394 59.3852 11.5266 59.6155 11.4918C59.8458 11.4571 60.0564 11.51 60.2471 11.6507C60.4375 11.7886 60.55 11.9727 60.5848 12.2031C60.6081 12.3576 60.5902 12.5054 60.531 12.6465C60.4743 12.7843 60.3884 12.9007 60.2734 12.9957C60.1585 13.0906 60.0237 13.1498 59.8692 13.1731Z" fill="#181818"/>
<path d="M36.0933 18.2952L37.9665 21.7003L36.8504 22.3148L33.6954 16.5799L34.7668 15.99L35.2803 16.9234L35.3512 16.8844C35.3161 16.5081 35.3884 16.1504 35.5683 15.8114C35.7507 15.471 36.0571 15.1823 36.4877 14.9453C36.8784 14.7301 37.2658 14.6239 37.6498 14.6265C38.0325 14.6266 38.393 14.7427 38.7314 14.9747C39.0698 15.2068 39.3691 15.5592 39.6293 16.0322L41.636 19.68L40.5199 20.2945L38.5871 16.7811C38.3584 16.3654 38.0714 16.1002 37.7262 15.9854C37.3796 15.8682 37.0172 15.9137 36.6389 16.1219C36.3801 16.2644 36.1807 16.4472 36.0407 16.6702C35.9033 16.8918 35.8356 17.1431 35.8378 17.424C35.841 17.7011 35.9262 17.9915 36.0933 18.2952Z" fill="#181818"/>
<path d="M21.447 37.9019L15.229 35.0948L16.0872 34.0961L20.5676 36.2575L20.6093 36.2091L17.8036 32.0988L18.6618 31.1001L23.1233 33.2508L23.1649 33.2024L20.3671 29.1156L21.2252 28.117L24.9353 33.8425L24.0882 34.8283L19.6387 32.7552L19.5748 32.8295L22.2913 36.9193L21.447 37.9019Z" fill="#181818"/>
<path d="M14.7332 53.3898C14.5222 53.966 14.2059 54.4205 13.7846 54.7532C13.3632 55.0859 12.8716 55.2839 12.3099 55.3473C11.7481 55.4107 11.1499 55.326 10.515 55.0933C9.87752 54.8596 9.36352 54.5366 8.97302 54.1242C8.58252 53.7117 8.33389 53.2424 8.22712 52.7161C8.12036 52.1898 8.1725 51.6386 8.38354 51.0624C8.59458 50.4862 8.91078 50.0317 9.33216 49.699C9.75353 49.3663 10.2464 49.1688 10.8108 49.1064C11.3753 49.044 11.9762 49.1296 12.6137 49.3633C13.2485 49.596 13.7599 49.9181 14.1477 50.3295C14.5355 50.741 14.7828 51.2098 14.8896 51.7361C14.9964 52.2624 14.9442 52.8136 14.7332 53.3898ZM13.7304 53.0177C13.8672 52.6442 13.8818 52.2986 13.7743 51.9809C13.6668 51.6631 13.4705 51.3854 13.1854 51.1477C12.9013 50.9074 12.5619 50.7149 12.1671 50.5702C11.775 50.4265 11.3929 50.3545 11.0209 50.3543C10.6471 50.3505 10.3153 50.4346 10.0254 50.6067C9.73541 50.7788 9.52205 51.0515 9.38526 51.425C9.2475 51.8011 9.23321 52.1499 9.3424 52.4713C9.45256 52.7901 9.65104 53.0701 9.93783 53.3114C10.2229 53.549 10.5615 53.7397 10.9536 53.8834C11.3484 54.0281 11.7313 54.1019 12.1024 54.1048C12.4744 54.105 12.8041 54.0186 13.0914 53.8455C13.3796 53.6698 13.5926 53.3938 13.7304 53.0177Z" fill="#181818"/>
<path d="M12.2587 71.5476C12.236 72.0755 12.0809 72.5409 11.7935 72.9437C11.5033 73.3435 11.1019 73.6504 10.5894 73.8643C10.0742 74.0753 9.46324 74.1656 8.75651 74.1352C8.04978 74.1048 7.45029 73.961 6.95804 73.7038C6.46592 73.4437 6.09537 73.1008 5.8464 72.6749C5.59742 72.249 5.48422 71.7735 5.50681 71.2485C5.52426 70.8426 5.60642 70.5191 5.75328 70.278C5.89742 70.034 6.06183 69.8477 6.2465 69.7192C6.43129 69.5878 6.59345 69.4867 6.73299 69.416L6.73628 69.3393L3.49639 69.1999L3.55113 67.9269L12.2703 68.3022L12.2169 69.5454L11.1993 69.5016L11.1948 69.608C11.3305 69.6906 11.4847 69.8082 11.6573 69.9606C11.83 70.1102 11.9777 70.3128 12.1004 70.5683C12.223 70.8238 12.2758 71.1502 12.2587 71.5476ZM11.1852 71.2199C11.2009 70.8537 11.1177 70.5402 10.9356 70.2793C10.7507 70.0154 10.488 69.8108 10.1473 69.6653C9.80677 69.517 9.4066 69.4329 8.9468 69.4131C8.49268 69.3936 8.09251 69.4418 7.7463 69.5577C7.40009 69.6736 7.12647 69.8537 6.92544 70.0982C6.72441 70.3426 6.6159 70.6507 6.59991 71.0225C6.58343 71.4057 6.66904 71.7293 6.85673 71.9933C7.04443 72.2573 7.30718 72.4619 7.645 72.6073C7.98294 72.7498 8.36761 72.8303 8.79903 72.8489C9.23613 72.8677 9.63204 72.8193 9.98676 72.7038C10.3415 72.5883 10.6265 72.4072 10.8419 72.1605C11.0545 71.9109 11.1689 71.5974 11.1852 71.2199Z" fill="#181818"/>
<path d="M6.90415 91.0256L15.218 88.3714L15.6053 89.5853L7.29137 92.2395L6.90415 91.0256Z" fill="#181818"/>
<path d="M9.99726 98.7129L17.9169 95.0463L18.4519 96.2027L10.5322 99.8693L9.99726 98.7129Z" fill="#181818"/>
<path d="M26.0804 107.549C26.4501 108.039 26.6606 108.551 26.7118 109.086C26.763 109.62 26.663 110.141 26.4119 110.648C26.1608 111.154 25.7655 111.611 25.226 112.019C24.6843 112.428 24.1344 112.685 23.5763 112.79C23.0182 112.895 22.4892 112.85 21.9892 112.654C21.4892 112.459 21.0544 112.116 20.6846 111.626C20.3149 111.136 20.1044 110.624 20.0532 110.09C20.002 109.555 20.1031 109.034 20.3565 108.525C20.6099 108.017 21.0075 107.558 21.5492 107.149C22.0887 106.741 22.6363 106.486 23.1921 106.383C23.7479 106.28 24.2758 106.326 24.7758 106.521C25.2758 106.717 25.7107 107.06 26.0804 107.549ZM25.2244 108.191C24.9848 107.873 24.7024 107.674 24.3771 107.592C24.0519 107.51 23.7123 107.524 23.3582 107.635C23.0023 107.744 22.6567 107.925 22.3212 108.178C21.988 108.43 21.7205 108.712 21.5188 109.025C21.313 109.337 21.2039 109.662 21.1914 109.999C21.1788 110.336 21.2924 110.663 21.5321 110.981C21.7734 111.3 22.0587 111.501 22.3879 111.584C22.7154 111.664 23.0581 111.649 23.4162 111.538C23.7704 111.428 24.114 111.246 24.4472 110.994C24.7827 110.741 25.0521 110.459 25.2556 110.149C25.4574 109.836 25.5634 109.512 25.5737 109.177C25.5822 108.839 25.4658 108.51 25.2244 108.191Z" fill="#181818"/>
<path d="M36.6828 117.424L32.5855 122.528L31.6254 121.757L32.2763 120.946L32.2231 120.903C31.9096 121.103 31.5723 121.188 31.2113 121.156C30.8462 121.125 30.5142 120.99 30.2152 120.75C30.1532 120.7 30.0819 120.639 30.0013 120.567C29.9185 120.493 29.8554 120.433 29.812 120.387L30.5749 119.437C30.6059 119.48 30.667 119.549 30.7582 119.644C30.8476 119.742 30.9433 119.831 31.0452 119.913C31.2799 120.102 31.5292 120.22 31.7931 120.268C32.0529 120.316 32.3063 120.296 32.5531 120.206C32.7981 120.119 33.0095 119.964 33.1874 119.743L35.6895 116.626L36.6828 117.424Z" fill="#181818"/>
<path d="M48.3154 123.595C48.8891 123.863 49.3222 124.225 49.6148 124.679C49.9036 125.134 50.0508 125.644 50.0564 126.208C50.0621 126.772 49.9258 127.351 49.6476 127.946C49.3658 128.548 49.0039 129.026 48.5619 129.381C48.1188 129.738 47.6306 129.95 47.0973 130.017C46.564 130.084 46.0183 129.987 45.46 129.725C45.0098 129.514 44.6476 129.242 44.3735 128.91C44.0981 128.58 43.9222 128.216 43.8458 127.816C43.7668 127.415 43.8001 127.006 43.9456 126.587L45.0686 127.113C45.0002 127.42 45.0297 127.726 45.157 128.03C45.2818 128.333 45.5281 128.571 45.896 128.743C46.2175 128.894 46.539 128.941 46.8603 128.885C47.1778 128.829 47.4764 128.677 47.7559 128.429C48.0342 128.183 48.2721 127.849 48.4696 127.427C48.6719 126.994 48.781 126.591 48.7967 126.215C48.8124 125.84 48.741 125.51 48.5824 125.226C48.4213 124.94 48.1774 124.72 47.8506 124.567C47.632 124.465 47.4152 124.412 47.2004 124.409C46.9817 124.407 46.7764 124.453 46.5845 124.548C46.3899 124.642 46.2182 124.785 46.0694 124.975L44.9464 124.449C45.1671 124.085 45.452 123.801 45.8013 123.598C46.1506 123.395 46.5405 123.289 46.9711 123.28C47.3991 123.27 47.8472 123.375 48.3154 123.595Z" fill="#181818"/>
<path d="M60.4675 132.114L61.6401 132.098C61.6641 132.251 61.7173 132.402 61.7996 132.551C61.8791 132.699 61.999 132.829 62.1592 132.942C62.3194 133.054 62.5299 133.132 62.7906 133.174C63.1468 133.232 63.457 133.2 63.7213 133.079C63.9852 132.961 64.1374 132.777 64.1779 132.527C64.213 132.312 64.1613 132.125 64.0229 131.967C63.8845 131.809 63.644 131.659 63.3016 131.517L62.3136 131.115C61.7414 130.881 61.3328 130.597 61.0876 130.263C60.8425 129.93 60.757 129.535 60.8313 129.078C60.8942 128.691 61.0624 128.364 61.3359 128.098C61.6062 127.834 61.9543 127.648 62.3803 127.542C62.8034 127.435 63.2758 127.424 63.7973 127.509C64.5208 127.627 65.086 127.877 65.493 128.26C65.8994 128.645 66.1081 129.133 66.1189 129.722L64.8733 129.709C64.849 129.38 64.7324 129.115 64.5232 128.914C64.3137 128.716 64.0196 128.586 63.6411 128.524C63.2289 128.457 62.8855 128.489 62.6109 128.62C62.3359 128.754 62.1782 128.946 62.1376 129.195C62.1048 129.397 62.1529 129.579 62.282 129.741C62.4083 129.903 62.62 130.043 62.9171 130.164L63.9717 130.581C64.5523 130.817 64.9626 131.108 65.2026 131.455C65.4399 131.802 65.5212 132.205 65.4465 132.665C65.3845 133.046 65.2237 133.362 64.9642 133.614C64.7046 133.865 64.3739 134.04 63.9722 134.139C63.57 134.24 63.1264 134.252 62.6413 134.173C61.9431 134.059 61.4181 133.819 61.0663 133.451C60.7141 133.085 60.5145 132.64 60.4675 132.114Z" fill="#181818"/>
<path d="M81.7878 126.643C82.0171 126.602 82.2288 126.648 82.4227 126.781C82.6171 126.917 82.7351 127.101 82.7765 127.333C82.8174 127.562 82.7698 127.772 82.6338 127.964C82.4982 128.159 82.3157 128.276 82.0864 128.317C81.8571 128.358 81.6452 128.311 81.4508 128.175C81.2568 128.043 81.1394 127.862 81.0985 127.632C81.071 127.478 81.085 127.33 81.1403 127.188C81.1934 127.048 81.2761 126.93 81.3885 126.832C81.5009 126.734 81.634 126.671 81.7878 126.643Z" fill="#181818"/>
<path d="M105.418 120.887L103.455 117.533L104.554 116.889L107.861 122.537L106.806 123.156L106.268 122.236L106.198 122.277C106.243 122.653 106.18 123.012 106.01 123.356C105.836 123.701 105.538 123.998 105.114 124.246C104.729 124.472 104.345 124.588 103.961 124.596C103.578 124.606 103.214 124.5 102.87 124.277C102.526 124.054 102.217 123.71 101.944 123.244L99.8406 119.651L100.94 119.007L102.966 122.467C103.206 122.877 103.5 123.134 103.848 123.24C104.197 123.348 104.559 123.292 104.931 123.074C105.186 122.925 105.38 122.737 105.514 122.51C105.646 122.285 105.707 122.032 105.697 121.751C105.686 121.474 105.593 121.186 105.418 120.887Z" fill="#181818"/>
<path d="M119.535 100.895L125.826 103.535L124.995 104.556L120.458 102.515L120.418 102.565L123.332 106.599L122.501 107.62L117.984 105.589L117.943 105.639L120.85 109.649L120.018 110.671L116.156 105.046L116.977 104.038L121.48 105.992L121.542 105.916L118.717 101.9L119.535 100.895Z" fill="#181818"/>
<path d="M125.832 85.2332C126.028 84.6516 126.332 84.1888 126.744 83.845C127.156 83.5011 127.642 83.29 128.202 83.2116C128.762 83.1332 129.362 83.2019 130.003 83.4175C130.647 83.634 131.169 83.9432 131.571 84.345C131.972 84.7468 132.233 85.2094 132.354 85.7326C132.475 86.2558 132.437 86.8083 132.242 87.3899C132.046 87.9716 131.742 88.4343 131.33 88.7782C130.918 89.122 130.43 89.3327 129.868 89.4102C129.305 89.4876 128.702 89.4181 128.059 89.2016C127.418 88.986 126.898 88.6777 126.499 88.2768C126.101 87.8758 125.841 87.4138 125.72 86.8905C125.599 86.3673 125.637 85.8149 125.832 85.2332ZM126.844 85.5784C126.718 85.9554 126.712 86.3012 126.828 86.616C126.944 86.9308 127.148 87.2031 127.439 87.4331C127.73 87.6657 128.074 87.849 128.473 87.9831C128.868 88.1163 129.252 88.178 129.624 88.1683C129.998 88.1621 130.327 88.0692 130.613 87.8894C130.898 87.7096 131.104 87.4312 131.231 87.0542C131.358 86.6745 131.363 86.3255 131.246 86.0071C131.127 85.6914 130.921 85.4168 130.628 85.1833C130.336 84.9534 129.993 84.7718 129.597 84.6387C129.199 84.5046 128.814 84.4411 128.443 84.4481C128.071 84.4578 127.744 84.5531 127.461 84.7338C127.178 84.9171 126.972 85.1987 126.844 85.5784Z" fill="#181818"/>
<path d="M127.82 67.0156C127.829 66.4873 127.971 66.0179 128.248 65.6076C128.527 65.2001 128.92 64.8826 129.427 64.655C129.936 64.4303 130.545 64.3237 131.252 64.3352C131.959 64.3467 132.562 64.4744 133.061 64.7183C133.56 64.9651 133.94 65.298 134.2 65.7171C134.46 66.1361 134.586 66.6084 134.578 67.1339C134.571 67.5401 134.497 67.8657 134.357 68.1106C134.22 68.3584 134.06 68.549 133.879 68.6824C133.698 68.8187 133.538 68.9241 133.401 68.9986L133.4 69.0753L136.642 69.128L136.621 70.4019L127.895 70.2601L127.915 69.016L128.934 69.0325L128.936 68.926C128.798 68.8471 128.64 68.7337 128.464 68.5859C128.287 68.441 128.134 68.2425 128.005 67.9903C127.875 67.7382 127.814 67.4133 127.82 67.0156ZM128.902 67.3145C128.896 67.6809 128.988 67.9921 129.177 68.248C129.369 68.5069 129.637 68.7044 129.981 68.8407C130.325 68.9799 130.728 69.0532 131.188 69.0606C131.642 69.068 132.041 69.0092 132.384 68.884C132.727 68.7589 132.996 68.5715 133.19 68.3218C133.385 68.0721 133.485 67.7611 133.491 67.389C133.497 67.0056 133.403 66.6844 133.208 66.4255C133.014 66.1666 132.745 65.9691 132.404 65.8328C132.062 65.6994 131.675 65.6292 131.244 65.6222C130.806 65.6151 130.412 65.674 130.06 65.799C129.709 65.924 129.429 66.1126 129.22 66.365C129.014 66.6202 128.908 66.9367 128.902 67.3145Z" fill="#181818"/>
<path d="M132.652 47.4013L124.412 50.277L123.992 49.0739L132.232 46.1982L132.652 47.4013Z" fill="#181818"/>
<path d="M129.354 39.7994L121.535 43.6767L120.97 42.5351L128.788 38.6578L129.354 39.7994Z" fill="#181818"/>
<path d="M113.041 31.3968C112.658 30.9171 112.434 30.4108 112.368 29.8777C112.303 29.3447 112.389 28.8216 112.626 28.3084C112.864 27.7953 113.247 27.3277 113.775 26.9059C114.306 26.4822 114.848 26.2105 115.404 26.0909C115.959 25.9712 116.489 26.0024 116.994 26.1844C117.499 26.3665 117.943 26.6973 118.325 27.177C118.708 27.6567 118.932 28.163 118.998 28.696C119.063 29.2291 118.976 29.7531 118.736 30.268C118.497 30.7829 118.111 31.2523 117.581 31.6759C117.053 32.0978 116.512 32.3677 115.959 32.4856C115.406 32.6035 114.877 32.5714 114.372 32.3894C113.867 32.2073 113.423 31.8765 113.041 31.3968ZM113.879 30.7327C114.127 31.0436 114.415 31.2356 114.742 31.3088C115.069 31.3819 115.409 31.3583 115.76 31.238C116.112 31.1199 116.453 30.9296 116.782 30.6673C117.108 30.4067 117.368 30.1174 117.561 29.7995C117.758 29.4819 117.859 29.1546 117.862 28.8173C117.866 28.48 117.744 28.156 117.496 27.8451C117.246 27.532 116.955 27.3386 116.624 27.265C116.294 27.1937 115.952 27.2179 115.597 27.3378C115.246 27.4581 114.907 27.6486 114.581 27.9092C114.252 28.1715 113.991 28.4606 113.796 28.7763C113.602 29.0943 113.505 29.421 113.504 29.7565C113.504 30.0942 113.629 30.4196 113.879 30.7327Z" fill="#181818"/>
<path d="M102.178 21.8096L106.137 16.5975L107.118 17.3428L106.489 18.1708L106.543 18.212C106.851 18.0037 107.186 17.9104 107.548 17.932C107.913 17.9531 108.249 18.0797 108.554 18.3118C108.618 18.3599 108.69 18.4189 108.773 18.4888C108.858 18.5604 108.922 18.6185 108.967 18.6631L108.23 19.6336C108.198 19.5913 108.135 19.5239 108.041 19.4312C107.949 19.3363 107.851 19.2493 107.747 19.1702C107.507 18.9879 107.255 18.8764 106.99 18.8354C106.729 18.794 106.476 18.8214 106.232 18.9176C105.989 19.0115 105.782 19.1716 105.61 19.3978L103.192 22.5808L102.178 21.8096Z" fill="#181818"/>
<path d="M90.3844 15.9524C89.8038 15.6991 89.3611 15.3495 89.0565 14.9036C88.7557 14.4562 88.5949 13.9506 88.5741 13.3868C88.5534 12.8229 88.6741 12.2402 88.9363 11.6386C89.2019 11.0292 89.5509 10.5414 89.9832 10.1752C90.4167 9.80636 90.8991 9.5813 91.4303 9.50001C91.9616 9.41871 92.5098 9.50131 93.0748 9.74779C93.5305 9.94656 93.8999 10.2084 94.1828 10.5333C94.4669 10.8556 94.6525 11.2155 94.7396 11.613C94.8292 12.0116 94.8069 12.4219 94.6726 12.8437L93.536 12.3479C93.5961 12.0394 93.5585 11.7347 93.423 11.4339C93.2903 11.1342 93.0377 10.9032 92.6653 10.7407C92.3398 10.5987 92.0172 10.5603 91.6975 10.6254C91.3816 10.6891 91.0872 10.8489 90.8145 11.105C90.5429 11.3584 90.314 11.6987 90.1278 12.1258C89.9371 12.5633 89.8389 12.9699 89.8332 13.3456C89.8276 13.7212 89.9078 14.0491 90.0739 14.3292C90.2426 14.6105 90.4923 14.8232 90.823 14.9675C91.0444 15.064 91.2625 15.1111 91.4773 15.1088C91.6959 15.1049 91.8999 15.0529 92.0893 14.9526C92.2812 14.8535 92.449 14.7066 92.5927 14.5121L93.7294 15.0079C93.5186 15.3777 93.2413 15.669 92.8976 15.8817C92.5539 16.0944 92.1669 16.2108 91.7367 16.2308C91.3091 16.2519 90.8584 16.1591 90.3844 15.9524Z" fill="#181818"/>
<path d="M78.0088 7.76116L76.837 7.8091C76.809 7.65623 76.7518 7.50659 76.6655 7.36018C76.582 7.21416 76.4587 7.08711 76.2956 6.97905C76.1325 6.87098 75.92 6.79924 75.6582 6.76384C75.3006 6.71548 74.9914 6.75536 74.7304 6.88347C74.4698 7.00877 74.3225 7.1967 74.2887 7.44726C74.2594 7.66404 74.316 7.84944 74.4586 8.00346C74.6012 8.15748 74.8456 8.3009 75.1917 8.43372L76.1901 8.80955C76.7683 9.02822 77.1844 9.30093 77.4384 9.62769C77.6924 9.95445 77.7884 10.3473 77.7264 10.8062C77.6739 11.1947 77.5145 11.5257 77.2482 11.7993C76.985 12.0705 76.642 12.2649 76.219 12.3826C75.7989 12.5006 75.327 12.5243 74.8033 12.4534C74.077 12.3552 73.5053 12.1202 73.0882 11.7485C72.6716 11.3739 72.45 10.8924 72.4234 10.304L73.6689 10.2833C73.702 10.6117 73.8257 10.8735 74.0401 11.0688C74.2549 11.2612 74.5523 11.3832 74.9324 11.4346C75.3462 11.4905 75.6886 11.4494 75.9596 11.3112C76.2309 11.1701 76.3835 10.9743 76.4174 10.7238C76.4448 10.521 76.3918 10.3404 76.2584 10.1819C76.1278 10.0238 75.9125 9.8886 75.6123 9.77634L74.5469 9.38714C73.9602 9.16734 73.5423 8.8872 73.293 8.54675C73.0465 8.20667 72.9545 7.80578 73.0169 7.34407C73.0686 6.96118 73.2209 6.64063 73.4737 6.3824C73.7264 6.12418 74.0523 5.94034 74.4512 5.83088C74.8505 5.71861 75.2937 5.69541 75.7807 5.76128C76.4817 5.85608 77.013 6.08273 77.3745 6.44123C77.7364 6.79691 77.9478 7.23689 78.0088 7.76116Z" fill="#181818"/>
</g>
<rect x="58.5" y="48.5" width="23" height="43" rx="11.5" stroke="#181818" stroke-width="3"/>
<circle cx="70" cy="80" r="6" fill="#181818"/>
<defs>
<clipPath id="clip0_33_1022">
<rect width="140" height="140" fill="white"/>
</clipPath>
</defs>
</svg>
