<svg width="127" height="28" viewBox="0 0 127 28" fill="none" xmlns="http://www.w3.org/2000/svg">
<g clip-path="url(#clip0_56_595)">
<mask id="mask0_56_595" style="mask-type:luminance" maskUnits="userSpaceOnUse" x="0" y="7" width="109" height="22">
<path d="M0.351006 7.84888H108.17V28.0005H0.351006V7.84888Z" fill="white"/>
</mask>
<g mask="url(#mask0_56_595)">
<path d="M101.154 21.2795C102.414 20.9067 103.96 20.889 104.975 20.889H105.277V21.0278C105.277 22.1783 104.877 23.4096 104.144 24.3019C103.533 25.0426 102.686 25.5445 101.641 25.5445C100.836 25.5445 100.225 25.3105 99.8035 24.9538C99.3355 24.5585 99.0983 24.0066 99.0983 23.4677C99.0983 22.2526 100.015 21.6152 101.154 21.2795ZM97.7283 26.7628C98.682 27.5825 100.004 28.0005 101.32 28.0005C102.443 28.0005 103.449 27.6584 104.277 27.1113C104.682 26.8435 105.043 26.5256 105.356 26.1738V27.681H108.033V18.6653C108.033 16.8726 107.543 15.4848 106.61 14.5311C105.668 13.5694 104.298 13.0723 102.548 13.0723C101.612 13.0723 100.646 13.2337 99.7696 13.5129C98.8773 13.7969 98.0769 14.2068 97.4959 14.6973L97.191 14.9555L97.3959 15.2976L98.2237 16.6789L98.4884 17.1194L98.9031 16.8161C99.4178 16.4417 99.9971 16.1432 100.609 15.9382C101.198 15.7414 101.819 15.6349 102.44 15.6349C103.326 15.6349 104.083 15.8414 104.578 16.3578C105.003 16.8016 105.259 17.4954 105.275 18.5121H104.948C103.634 18.5121 101.538 18.5814 99.7486 19.2205C97.8558 19.895 96.3147 21.1827 96.3147 23.6274C96.3147 24.9781 96.8731 26.0269 97.7283 26.7628ZM86.7053 27.681H84.4203V8.08447H87.1765V18.4862H88.6369L92.4952 13.5726L92.6372 13.3919H96.0356L95.4191 14.1584L90.9509 19.7207L95.9194 26.9419L96.4277 27.681H93.0955L92.9551 27.4712L88.6417 21.0213H87.1765V27.681H86.7053ZM71.0446 17.0323C70.2006 17.894 69.6794 19.0962 69.6794 20.4694C69.6794 21.8911 70.1974 23.1191 71.0365 23.9921C71.8917 24.8828 73.0843 25.4105 74.4091 25.4105C75.7355 25.4105 76.9377 24.8812 77.7994 23.9889C78.6434 23.1143 79.1646 21.8895 79.1646 20.4694C79.1646 19.0994 78.6401 17.8972 77.7913 17.0355C76.9313 16.1609 75.7323 15.6349 74.4091 15.6349C73.0891 15.6349 71.8982 16.1609 71.0446 17.0323ZM69.0452 25.8172C67.6978 24.4714 66.87 22.6011 66.87 20.4694C66.87 18.3749 67.6994 16.5369 69.0484 15.2153C70.4136 13.8776 72.3081 13.0723 74.4091 13.0723C76.5117 13.0723 78.4142 13.8792 79.7859 15.2169C81.1397 16.5401 81.9756 18.3765 81.9756 20.4694C81.9756 22.5995 81.1413 24.4681 79.7907 25.8139C78.4191 27.1791 76.5133 28.0005 74.4091 28.0005C72.3065 28.0005 70.4104 27.1807 69.0452 25.8172ZM62.5534 27.1614C61.8046 26.6305 61.2157 25.6945 61.2157 24.0518V8.08447H63.9734V23.6532C63.9734 24.3826 64.1203 24.778 64.3284 24.9813C64.5108 25.1572 64.7738 25.1991 65.0207 25.1991C65.0836 25.1991 65.1611 25.1991 65.195 25.1975C65.2498 25.1943 65.3112 25.1894 65.3725 25.1798L65.9195 25.0894V27.6616L65.5242 27.7261C65.4387 27.7407 65.337 27.7552 65.2063 27.7665C65.0723 27.7794 64.9287 27.7875 64.7819 27.7875C64.1671 27.7875 63.2941 27.6874 62.5534 27.1614ZM49.8634 16.5159C49.2761 17.0436 48.8242 17.7762 48.5838 18.6976H55.9244C55.8115 17.7391 55.4742 17.0033 54.9933 16.482C54.3882 15.8253 53.541 15.5025 52.618 15.5025C51.5756 15.5025 50.6057 15.8495 49.8634 16.5159ZM47.685 25.8801C46.3585 24.565 45.5598 22.7173 45.5598 20.5501C45.5598 18.3055 46.3134 16.4885 47.5301 15.204C48.8355 13.8259 50.6687 13.0723 52.6712 13.0723C54.5754 13.0723 56.0438 13.7711 57.0637 14.8926C58.1803 16.1206 58.7451 17.844 58.7451 19.6997C58.7451 19.8466 58.737 20.0112 58.7274 20.1806C58.7177 20.3097 58.7032 20.4775 58.6886 20.6453L58.6483 21.0746H48.4224C48.5451 22.3445 49.0259 23.3547 49.7376 24.076C50.5993 24.9506 51.8079 25.4105 53.1263 25.4105C53.796 25.4105 54.4769 25.2717 55.1176 25.0232C55.7727 24.7667 56.3827 24.3971 56.891 23.9405L57.3154 23.5596L57.6091 24.0486L58.6354 25.7591L58.3498 26.0189C57.6817 26.6256 56.8329 27.121 55.9196 27.4631C54.9982 27.8068 54.0106 27.9989 53.0714 27.9989C50.9269 28.0005 49.0356 27.2194 47.685 25.8801ZM39.3633 27.681H37.0686L36.9508 27.3792L31.7774 14.0325L31.5272 13.3919H34.4867L34.6029 13.6968L38.3095 23.4886L38.3111 23.4935C38.3289 23.5403 38.345 23.5903 38.3628 23.6403C38.3789 23.5903 38.3967 23.5403 38.4144 23.4935L38.416 23.4886L42.1226 13.6968L42.2388 13.3919H45.1693L44.924 14.0309L39.8038 27.3776L39.686 27.681H39.3633ZM23.3524 21.2795C22.2131 21.6152 21.2981 22.2526 21.2981 23.4677C21.2981 24.0066 21.5354 24.5585 22.0033 24.9538C22.4229 25.3089 23.0345 25.5445 23.8397 25.5445C24.8853 25.5445 25.7325 25.0426 26.3425 24.3019C27.0767 23.4096 27.4753 22.1783 27.4753 21.0278V20.889H27.1735C26.1601 20.889 24.6142 20.9067 23.3524 21.2795ZM19.9281 26.7628C19.0729 26.0269 18.5145 24.9781 18.5145 23.6274C18.5145 21.1827 20.0556 19.895 21.9485 19.2205C23.738 18.5814 25.8342 18.5121 27.1477 18.5121H27.4753C27.4592 17.4954 27.2026 16.8016 26.7766 16.3578C26.2812 15.8414 25.526 15.6349 24.6401 15.6349C24.0172 15.6349 23.3975 15.7414 22.8085 15.9382C22.197 16.1432 21.616 16.4417 21.1029 16.8161L20.6866 17.1194L20.4235 16.6773L19.5957 15.2976L19.3908 14.9555L19.6958 14.6973C20.2767 14.2051 21.0771 13.7969 21.9694 13.5113C22.8457 13.2337 23.8122 13.0723 24.7466 13.0723C26.4974 13.0723 27.8674 13.5677 28.8082 14.5311C29.7425 15.4848 30.2331 16.8726 30.2331 18.6653V27.681H27.556V26.1738C27.2429 26.5256 26.8798 26.8435 26.4764 27.1113C25.647 27.6584 24.6417 27.9989 23.5202 27.9989C22.2034 28.0005 20.8818 27.5825 19.9281 26.7628ZM12.5843 27.681H10.2993V13.3919H13.0297V15.3267C13.2943 14.962 13.5944 14.6328 13.9269 14.3488C14.7208 13.6726 15.6922 13.2579 16.7992 13.2579C16.9348 13.2579 17.0816 13.266 17.2301 13.2837C17.3688 13.2983 17.506 13.3209 17.6319 13.3531L17.9917 13.4419V16.24L17.3721 16.0351C17.3656 16.0334 17.3043 16.027 17.2139 16.0205C17.1058 16.0125 16.9735 16.006 16.8525 16.006C15.6874 16.006 14.8208 16.5902 14.2173 17.4438H14.2157C13.4169 18.5734 13.0571 20.1645 13.0571 21.5571V27.681H12.5843ZM4.08183 26.8935C2.98937 26.1318 2.11153 24.7699 2.11153 22.3542V15.9528H0.351006V13.4967H2.13735V9.70299H4.86769V13.4967H8.25641V15.9528H4.86769V22.167C4.86769 23.2901 5.14363 24.0034 5.53091 24.4536C6.08924 25.1007 6.90737 25.2249 7.43827 25.2249C7.52864 25.2249 7.62062 25.2249 7.69323 25.2201H7.69485C7.77553 25.2153 7.85944 25.204 7.94981 25.1846L8.52266 25.0587V27.6616L8.12731 27.7261C8.02404 27.7439 7.88688 27.76 7.72551 27.7713C7.58834 27.781 7.43666 27.7875 7.27691 27.7875C6.43941 27.7875 5.1646 27.6471 4.08183 26.8935Z" fill="#909090"/>
</g>
<path d="M118.477 14.786C118.493 14.7763 118.509 14.7666 118.525 14.757C117.806 12.6075 120.797 8.97515 126.347 2.89966C121.861 3.44992 118.39 4.58918 115.935 6.31581C116.174 9.83685 117.021 12.6608 118.477 14.786Z" fill="#909090"/>
<path d="M118.477 14.786C118.493 14.7763 118.509 14.7666 118.525 14.7569C118.501 14.6843 118.482 14.6101 118.466 14.5343C117.765 11.8717 117.481 8.79602 117.614 5.30725C117.01 5.61869 116.45 5.95434 115.935 6.3158C116.174 9.83684 117.021 12.6608 118.477 14.786Z" fill="#909090"/>
<path d="M120.325 17.8681C121.509 18.4749 122.492 18.7879 123.362 18.6379C117.514 16.3448 115.087 10.1322 116.081 -0.00170898C113.98 0.411392 112.276 1.37153 111.088 2.9723C110.054 4.36813 110.386 6.13994 111.233 8.50721C111.348 8.82349 111.483 10.534 110.776 11.1698C110.515 11.4021 110.097 11.2182 109.736 10.9826C108.493 10.2758 107.459 10.2823 106.636 11.0036C104.367 10.6211 102.724 10.4146 101.706 10.3791C103.158 10.8357 104.837 11.3069 106.72 11.8556C107.525 12.0896 108.214 12.6431 108.758 13.4789C109.871 15.1894 113.026 16.1173 116.081 16.5578C117.226 16.7224 118.813 17.0936 120.325 17.8681Z" fill="#909090"/>
</g>
<defs>
<clipPath id="clip0_56_595">
<rect width="125.996" height="28" fill="white" transform="translate(0.351006)"/>
</clipPath>
</defs>
</svg>
