<svg width="268" height="24" viewBox="0 0 268 24" fill="none" xmlns="http://www.w3.org/2000/svg">
<path fill-rule="evenodd" clip-rule="evenodd" d="M267.463 7.63302C266.371 4.80371 256.989 3.61237 228.795 2.61964C202.488 1.67653 171.862 -1.05345 118.353 0.435656C77.4521 1.57731 26.5246 6.14396 26.5246 8.67544C26.5246 10.512 28.5102 10.5616 47.4715 8.92363C64.9933 7.43452 73.9776 7.08706 84.9474 6.68997C40.969 10.5617 31.5876 13.093 8.1589 15.5253C-6.53365 17.064 2.05355 21.4817 7.41434 21.035C7.46398 21.035 75.8141 15.4756 82.2669 15.7734C82.8626 15.8231 76.3602 16.7165 67.773 17.7589C43.7983 20.7371 48.4145 25.7008 66.3831 23.4175C126.841 15.7238 183.725 13.3411 227.554 16.6668C241.403 17.7092 242.942 17.7092 242.942 16.4186C242.942 14.1353 239.169 12.3981 233.263 12.0507C224.03 11.455 188.49 9.76731 172.408 9.27094C171.167 9.22131 171.762 8.27835 172.854 8.17907C179.407 7.53379 231.426 8.02997 251.877 8.72489C266.917 9.22126 268.009 9.17177 267.463 7.63302Z" fill="#35AFF4"/>
</svg>
